<svg width="16" height="16" viewBox="0 0 16 16" fill="none" xmlns="http://www.w3.org/2000/svg">
<g clip-path="url(#clip0_11486_150863)">
<path fill-rule="evenodd" clip-rule="evenodd" d="M9.95461 13.6462C11.8608 13.6462 13.406 12.101 13.406 10.1948C13.406 8.28873 11.8608 6.7435 9.95461 6.7435C8.04846 6.7435 6.50323 8.28873 6.50323 10.1948C6.50323 12.101 8.04846 13.6462 9.95461 13.6462ZM9.95461 15.2422C12.7422 15.2422 15.002 12.9824 15.002 10.1948C15.002 7.40728 12.7422 5.14746 9.95461 5.14746C7.16701 5.14746 4.90723 7.40728 4.90723 10.1948C4.90723 12.9824 7.16701 15.2422 9.95461 15.2422Z" fill="#9CFF1F"/>
<path fill-rule="evenodd" clip-rule="evenodd" d="M13.5741 2.26117C14.457 3.11882 15.1426 4.17844 15.5564 5.36545C14.3334 4.16895 12.6594 3.43139 10.8133 3.43139C7.3646 3.43139 4.517 6.00513 4.08656 9.33662C4.0494 9.04927 4.03027 8.75629 4.03027 8.45884C4.03027 4.71265 7.06715 1.67578 10.8133 1.67578C11.7964 1.67578 12.7307 1.88493 13.5741 2.26117Z" fill="#9CFF1F"/>
<path fill-rule="evenodd" clip-rule="evenodd" d="M15.7497 9.99329C15.9132 9.35598 16.0001 8.68794 16.0001 7.99965C16.0001 7.45183 15.945 6.91685 15.8401 6.39998C14.7167 5.129 13.1182 4.27529 11.2936 4.13089C10.997 4.1074 10.7035 4.10336 10.4141 4.11772C13.2806 4.72118 15.4276 7.11154 15.7497 9.99329Z" fill="#9CFF1F"/>
<path fill-rule="evenodd" clip-rule="evenodd" d="M12.3167 1.26339C11.7818 1.14161 11.2251 1.07731 10.6534 1.07731C6.53258 1.07731 3.19202 4.41785 3.19202 8.53866C3.19202 12.2148 5.85065 15.2701 9.35007 15.8865C8.91116 15.9612 8.46011 16 8 16C3.58173 16 0 12.4183 0 8C0 3.58172 3.58173 0 8 0C9.58982 0 11.0714 0.463764 12.3167 1.26339Z" fill="#9CFF1F"/>
</g>
<defs>
<clipPath id="clip0_11486_150863">
<rect width="16" height="16" fill="white"/>
</clipPath>
</defs>
</svg>
