<svg width="37" height="36" viewBox="0 0 37 36" fill="none" xmlns="http://www.w3.org/2000/svg">
<path fill-rule="evenodd" clip-rule="evenodd" d="M17.7934 9.74447C17.7936 9.74425 17.7937 9.744 17.7939 9.74379C19.0925 10.4101 20.5136 10.6384 21.8734 10.6345C22.6636 11.3602 23.3209 12.2126 23.9386 13.0879C24.1947 13.4535 24.4257 13.8361 24.63 14.2331C25.1023 15.1426 25.4497 16.1049 25.8011 17.0786C25.9042 17.3642 26.0077 17.6507 26.1147 17.9372C26.1482 18.0598 26.1833 18.1825 26.2198 18.3052L26.2217 18.3047C26.7646 20.1666 27.5572 22.1556 28.6193 23.7977L28.6183 23.7982C28.9696 24.3376 29.3631 24.8484 29.7952 25.3258C29.8802 25.4177 29.9672 25.5089 30.0543 25.6001L30.0543 25.6001L30.0543 25.6001L30.0544 25.6003C30.4612 26.0265 30.8709 26.4557 31.1032 26.9927C31.3923 27.6618 31.3701 28.4316 31.1962 29.1398C30.3756 32.4778 27.1611 33.3549 24.0889 33.4358L24.0904 33.432C22.9385 33.4549 21.7945 33.3691 20.7802 33.2651C20.7802 33.2651 15.888 32.7587 11.7412 29.727L11.6073 29.6275C11.6073 29.6275 11.6073 29.6275 11.6074 29.6275C11.1233 29.2668 10.6616 28.8771 10.2246 28.4606C9.06229 27.3512 8.02809 26.093 7.23724 24.7117C7.24253 24.7064 7.24779 24.7011 7.25309 24.6958C7.15948 24.5273 7.06973 24.3572 6.98388 24.1853C6.21879 22.654 5.75251 20.9872 5.73139 19.2154C5.69539 16.2425 6.71245 13.198 8.64567 10.9907C8.64496 10.9888 8.64428 10.987 8.6436 10.9852C9.69032 9.83862 10.9986 8.9379 12.5474 8.4251C13.5184 8.10067 14.5377 7.9449 15.5613 7.96454C16.1841 8.69589 16.942 9.30019 17.7934 9.74447ZM15.4103 29.196C16.1102 28.9405 16.7733 28.5969 17.3916 28.1735C16.7694 28.594 16.1054 28.9378 15.4103 29.196Z" fill="url(#paint0_linear_2800_38987)"/>
<path fill-rule="evenodd" clip-rule="evenodd" d="M27.9479 7.32231C27.9484 7.32231 27.9489 7.32231 27.9494 7.32227L27.9917 7.29507C22.5373 -2.0091 15.4053 5.31615 15.4053 5.31615L15.4155 5.33408C15.415 5.33418 15.4146 5.33429 15.4142 5.3344C19.5154 12.5248 27.3097 7.73237 27.9479 7.32231Z" fill="url(#paint1_linear_2800_38987)"/>
<path d="M21.1864 23.3483C19.6834 26.9411 16.7977 29.3201 13.3014 29.6805C13.2263 29.6905 12.2694 29.766 11.7412 29.727C15.888 32.7587 20.7802 33.2651 20.7802 33.2651C21.8277 33.3724 23.0132 33.4605 24.2031 33.4293C24.6221 32.3354 24.858 31.0829 24.7903 29.6619C24.6332 26.3614 26.547 24.667 28.6193 23.7977C27.5572 22.1555 26.7646 20.1666 26.2217 18.3047C24.6035 18.7352 22.5484 20.0889 21.1864 23.3483Z" fill="url(#paint2_linear_2800_38987)"/>
<path d="M24.7248 29.638C24.7928 31.0591 24.5079 32.3413 24.0889 33.4352C27.161 33.3543 30.3756 32.4772 31.1962 29.1392C31.3701 28.431 31.3923 27.6613 31.1031 26.9921C30.8212 26.3401 30.2776 25.8469 29.7952 25.3252C29.3439 24.8267 28.9347 24.2916 28.5717 23.7256C26.5012 24.5952 24.5677 26.3379 24.7248 29.638Z" fill="url(#paint3_linear_2800_38987)"/>
<path d="M26.1148 17.9366C25.6428 16.6733 25.2409 15.4087 24.63 14.2324C24.4258 13.8355 24.1948 13.4529 23.9387 13.0873C23.321 12.212 22.6636 11.3596 21.8735 10.6339C20.5137 10.6378 19.0926 10.4095 17.794 9.74316C16.4785 11.609 14.9734 14.7742 16.3511 18.3871C18.3855 23.7227 14.257 27.3692 11.6074 29.6269L11.7413 29.7264C12.238 29.7651 12.7373 29.758 13.2328 29.7049C16.7287 29.3442 19.7815 26.9079 21.2845 23.3154C22.6468 20.0561 24.6286 18.818 26.2447 18.3871C26.1991 18.2368 26.1558 18.0866 26.1148 17.9366Z" fill="url(#paint4_linear_2800_38987)"/>
<path d="M8.78781 10.8311C6.76237 13.0497 5.69453 16.1699 5.73139 19.2148C5.75251 20.9866 6.21879 22.6534 6.98388 24.1847C7.09864 24.4144 7.22031 24.6411 7.34889 24.8646C11.607 20.5904 10.0686 14.2217 8.78781 10.8311Z" fill="url(#paint5_linear_2800_38987)"/>
<path d="M16.4227 18.3867C15.0449 14.7724 16.5164 11.628 17.8301 9.76249C16.9638 9.3165 16.1931 8.70539 15.5613 7.96357C14.5378 7.94392 13.5184 8.09969 12.5475 8.42412C10.9987 8.93693 9.69039 9.83764 8.64367 10.9842C9.89615 14.3004 11.4013 20.5303 7.2373 24.7107C8.02816 26.092 9.06235 27.3502 10.2247 28.4596C10.6831 28.8966 11.1689 29.3041 11.679 29.6795C14.3285 27.4229 18.4571 23.7223 16.4227 18.3867Z" fill="url(#paint6_linear_2800_38987)"/>
<path d="M21.5604 5.90884C24.4436 7.04646 26.463 7.35457 27.927 7.31055L27.9692 7.28336C22.5148 -2.02082 15.3828 5.30443 15.3828 5.30443L15.3932 5.32268C16.9316 5.05 19.1675 4.96519 21.5604 5.90884Z" fill="url(#paint7_linear_2800_38987)"/>
<path d="M21.5951 5.84501C19.2035 4.90278 16.9548 4.93857 15.3906 5.32326C19.492 12.514 27.2867 7.72087 27.9244 7.31113C26.4594 7.35515 24.4783 6.98262 21.5951 5.84501Z" fill="url(#paint8_linear_2800_38987)"/>
<defs>
<linearGradient id="paint0_linear_2800_38987" x1="2.54006" y1="12.3286" x2="35.8919" y2="32.3146" gradientUnits="userSpaceOnUse">
<stop stop-color="#E54033"/>
<stop offset="0.489583" stop-color="#FECA1A"/>
<stop offset="1" stop-color="#AFD803"/>
</linearGradient>
<linearGradient id="paint1_linear_2800_38987" x1="9439.85" y1="1117.41" x2="7351.92" y2="-1030.32" gradientUnits="userSpaceOnUse">
<stop offset="0.15" stop-color="#6CBF00"/>
<stop offset="1" stop-color="#AFD803"/>
</linearGradient>
<linearGradient id="paint2_linear_2800_38987" x1="8.29902" y1="29.9789" x2="29.1976" y2="24.8974" gradientUnits="userSpaceOnUse">
<stop offset="0.21" stop-color="#E54033"/>
<stop offset="0.84" stop-color="#FECA1A"/>
</linearGradient>
<linearGradient id="paint3_linear_2800_38987" x1="24.7641" y1="28.5688" x2="31.2126" y2="28.6171" gradientUnits="userSpaceOnUse">
<stop stop-color="#FECA1A"/>
<stop offset="0.4" stop-color="#FECA1A"/>
<stop offset="1" stop-color="#AFD803"/>
</linearGradient>
<linearGradient id="paint4_linear_2800_38987" x1="10.1678" y1="30.1086" x2="23.3887" y2="12.2098" gradientUnits="userSpaceOnUse">
<stop offset="0.16" stop-color="#E54033"/>
<stop offset="0.84" stop-color="#FECA1A"/>
</linearGradient>
<linearGradient id="paint5_linear_2800_38987" x1="8.24244" y1="12.324" x2="7.657" y2="23.8848" gradientUnits="userSpaceOnUse">
<stop stop-color="#FECA1A"/>
<stop offset="0.76" stop-color="#E54033"/>
</linearGradient>
<linearGradient id="paint6_linear_2800_38987" x1="14.71" y1="9.32162" x2="11.1791" y2="22.7293" gradientUnits="userSpaceOnUse">
<stop offset="0.16" stop-color="#FECA1A"/>
<stop offset="1" stop-color="#E54033"/>
</linearGradient>
<linearGradient id="paint7_linear_2800_38987" x1="16.0781" y1="2.90252" x2="29.1516" y2="7.72137" gradientUnits="userSpaceOnUse">
<stop offset="0.15" stop-color="#6CBF00"/>
<stop offset="1" stop-color="#AFD803"/>
</linearGradient>
<linearGradient id="paint8_linear_2800_38987" x1="9439.82" y1="1117.4" x2="7351.89" y2="-1030.33" gradientUnits="userSpaceOnUse">
<stop offset="0.15" stop-color="#6CBF00"/>
<stop offset="1" stop-color="#AFD803"/>
</linearGradient>
</defs>
</svg>
