<svg width="14" height="16" viewBox="0 0 14 16" fill="none" xmlns="http://www.w3.org/2000/svg">
<path d="M7.6886 1.08746C7.6886 1.08746 5.46926 1.09835 4.26763 1.11892L4.59798 0.0625L0.0625 3.24387L3.10955 6.47485L3.39029 5.58422C3.44112 5.37729 3.6069 5.2357 3.81384 5.2357L6.9069 5.24418C7.11501 5.24418 7.29531 5.10018 7.34009 4.89687L7.55794 3.91306L10.6062 7.13921L6.06827 10.306L6.07069 10.2976L6.57651 8.74258H6.5753H3.57786C2.86148 8.74258 2.22739 9.20366 2.00594 9.88494L0.0806516 15.8108H4.27852L5.03483 13.4826C5.09776 13.2902 5.27685 13.1595 5.47894 13.1595H7.6886C11.0225 13.1595 13.7246 10.4573 13.7246 7.12349C13.7246 3.78963 11.0225 1.08746 7.6886 1.08746Z" fill="url(#paint0_linear_4397_23057)"/>
<defs>
<linearGradient id="paint0_linear_4397_23057" x1="6.89368" y1="0.0625" x2="6.89368" y2="15.8108" gradientUnits="userSpaceOnUse">
<stop stop-color="#826DF9"/>
<stop offset="0.2826" stop-color="#7F6DF9"/>
<stop offset="0.5233" stop-color="#746FFA"/>
<stop offset="0.7488" stop-color="#6371FC"/>
<stop offset="0.9637" stop-color="#4A74FF"/>
<stop offset="1" stop-color="#4575FF"/>
</linearGradient>
</defs>
</svg>
