<svg width="34" height="27" viewBox="0 0 34 27" fill="none" xmlns="http://www.w3.org/2000/svg">
    <path fill-rule="evenodd" clip-rule="evenodd"
        d="M9.10928 1.25176C9.924 2.04611 9.94051 3.35053 9.14616 4.16525L6.23075 7.15541C4.28862 9.14734 4.30877 12.3305 6.27596 14.2977L3.36224 17.2114C-0.19978 13.6494 -0.236261 7.88561 3.28038 4.2788L6.19579 1.28864C6.99014 0.473913 8.29456 0.457401 9.10928 1.25176ZM29.5576 11.9333L30.9899 10.475L29.5576 11.9333ZM30.9899 10.475C35.056 14.4684 34.8088 21.0932 30.456 24.7723L28.3981 26.5117C27.529 27.2462 26.2291 27.1372 25.4945 26.2681C24.76 25.3991 24.8691 24.0991 25.7381 23.3646L27.796 21.6252C30.2956 19.5125 30.4376 15.7082 28.1025 13.4148L29.5576 11.9333L28.1025 13.4148C25.9538 11.3043 22.5149 11.2894 20.3478 13.3812L18.9169 11.8989L20.3478 13.3812L16.2618 17.3254C12.6503 20.8114 6.91155 20.7608 3.36224 17.2114L6.27596 14.2977C8.23613 16.2579 11.4055 16.2859 13.4 14.3606L13.4 14.3606L17.486 10.4165C21.2596 6.77391 27.2481 6.79974 30.9899 10.475Z"
        fill="#FF5C28" />
    <path fill-rule="evenodd" clip-rule="evenodd"
        d="M21.9191 3.18645C22.2203 4.28374 21.5749 5.41745 20.4777 5.71867C18.3653 6.29852 16.1857 7.81259 14.4369 9.33229C13.5859 10.0718 12.8826 10.772 12.3938 11.2858C12.15 11.542 11.9613 11.75 11.8361 11.8909C11.7736 11.9613 11.727 12.0149 11.6975 12.0491C11.6827 12.0663 11.6722 12.0786 11.6661 12.0857L11.6611 12.0916L11.6606 12.0922C10.929 12.9632 9.62983 13.0766 8.75843 12.3452C7.88684 11.6137 7.77329 10.3141 8.5048 9.44256L10.0332 10.7253C8.5048 9.44255 8.50509 9.44221 8.50538 9.44186L8.5078 9.43898L8.51255 9.43335L8.52724 9.41603C8.53932 9.40183 8.55597 9.38235 8.57704 9.35792C8.61918 9.30905 8.67909 9.24028 8.75571 9.15405C8.90885 8.98169 9.12926 8.73896 9.40844 8.44553C9.96545 7.86008 10.7635 7.06534 11.7341 6.22192C13.6285 4.57577 16.3735 2.57223 19.3869 1.74504C20.4841 1.44382 21.6179 2.08917 21.9191 3.18645Z"
        fill="#FF5C28" />
    <path fill-rule="evenodd" clip-rule="evenodd"
        d="M22.2988 16.5039C23.0288 15.6315 24.3278 15.5158 25.2005 16.2456C26.0734 16.9755 26.1893 18.2749 25.4594 19.1478L23.8788 17.8261C25.4594 19.1478 25.4591 19.1481 25.4588 19.1485L25.4563 19.1514L25.4515 19.1571L25.4367 19.1746C25.4246 19.189 25.4079 19.2086 25.3867 19.2332C25.3444 19.2823 25.2844 19.3515 25.2076 19.4381C25.0541 19.6112 24.8333 19.8547 24.5536 20.1488C23.9955 20.7355 23.1956 21.531 22.2219 22.3724C20.3227 24.0135 17.5618 26.0066 14.5193 26.785C13.417 27.067 12.2947 26.402 12.0127 25.2996C11.7306 24.1972 12.3957 23.0749 13.498 22.7929C15.605 22.2539 17.7792 20.7655 19.5277 19.2546C20.3778 18.52 21.08 17.8218 21.568 17.3088C21.8113 17.053 21.9995 16.8452 22.1243 16.7045C22.1866 16.6341 22.233 16.5807 22.2624 16.5465C22.2771 16.5294 22.2875 16.5172 22.2935 16.5101L22.2983 16.5045L22.2988 16.5039Z"
        fill="#FF5C28" />
</svg>
